{"title":"Ip.Man.2.Ver2.2010.1080p.BluRay.DTS.x264-LTT","uid":5662553,"size":7840652148,"categoryP":"video","categoryS":"hd___movies","magnet":"?xt=urn:btih:35d1a600d18ac680c6f09ac3d08f79ab818c395c&amp;dn=Ip.Man.2.Ver2.2010.1080p.BluRay.DTS.x264-LTT&amp;tr=udp%3A%2F%2Ftracker.openbittorrent.com%3A80&amp;tr=udp%3A%2F%2Fopen.demonii.com%3A1337&amp;tr=udp%3A%2F%2Ftracker.coppersurfer.tk%3A6969&amp;tr=udp%3A%2F%2Fexodus.desync.com%3A6969","seeders":0,"leechers":1,"uploader":"Ltt_01","files":5,"time":1278023811,"description":"Ip.Man.2.2010.1080p.BLuray.mkv\n******************************\n\nTiTLE......  Yip Man 2  \nAKA:         Ip Man 2\nYEAR.......  2010\nGENRE......  Action | Biography | History\niMDB RATE..  User Rating: 7.8/10 (2,446 votes)\niMDB URL... &lt;a href=&quot; http://www.imdb.com/title/tt1386932/&quot; rel=&quot;nofollow&quot; target=&quot;_NEW&quot;&gt; http://www.imdb.com/title/tt1386932/&lt;/a&gt;\n*************************************************\n\nVideo\nDuration                         : 1h 48mn\nOverall bit rate                 : 9 661 Kbps\nWidth                            : 1 920 pixels\nHeight                           : 816 pixels\nDisplay aspect ratio             : 2.35:1\nFrame rate                       : 23.976 fps\nStream size                      : 5.52 GiB (76%)\n\nAudio #1\n********\nFormat                           : DTS\nBit rate                         : 1 510 Kbps\nChannel(s)                       : 6 channels\nChannel positions                : Front: L C R, Surround: L R, LFE\nSampling rate                    : 48.0 KHz\nResolution                       : 24 bits\nStream size                      : 1.14 GiB (16%)\nLanguage                         : Chinese (Cantonese)\n\nAudio #2\n********\nFormat                           : AC-3\nBit rate                         : 640 Kbps\nChannel(s)                       : 6 channels\nChannel positions                : Front: L C R, Surround: L R, LFE\nSampling rate                    : 48.0 KHz\nStream size                      : 495 MiB (7%)\nLanguage                         : Chinese (Mandarin)\n\nSubtitles: Chinese, English (file *.sub *.idx)\n**********************************************\nsource: Disk Bluray RETAIL (Hong Kong)\n**************************************\n","torrent":{"xt":"urn:btih:35d1a600d18ac680c6f09ac3d08f79ab818c395c","amp;dn":"Ip.Man.2.Ver2.2010.1080p.BluRay.DTS.x264-LTT","amp;tr":["udp%3A%2F%2Ftracker.openbittorrent.com%3A80","udp%3A%2F%2Fopen.demonii.com%3A1337","udp%3A%2F%2Ftracker.coppersurfer.tk%3A6969","udp%3A%2F%2Fexodus.desync.com%3A6969"],"infoHash":"35d1a600d18ac680c6f09ac3d08f79ab818c395c","infoHashBuffer":{"type":"Buffer","data":[53,209,166,0,209,138,198,128,198,240,154,195,208,143,121,171,129,140,57,92]},"announce":[],"urlList":[]}}